<?xml version="1.0" encoding="UTF-8"?>
<svg version="1.1" xmlns="http://www.w3.org/2000/svg" width="512" height="512">
<path d="M0 0 C4.52488127 2.14336481 6.89879323 4.46581697 9 9 C9.82181104 12.40058097 10.12400621 15.55022269 10.12025452 19.04304504 C10.12231651 20.53003906 10.12231651 20.53003906 10.12442017 22.04707336 C10.12082489 23.12313339 10.11722961 24.19919342 10.11352539 25.30786133 C10.11367142 26.44975922 10.11381744 27.5916571 10.1139679 28.76815796 C10.11327168 32.53946843 10.10549285 36.31072941 10.09765625 40.08203125 C10.09579104 42.69805372 10.09436762 45.31407654 10.09336853 47.93009949 C10.09026356 54.11002778 10.08206141 60.28993833 10.07201904 66.46985883 C10.060832 73.50732329 10.05534093 80.54478862 10.05032361 87.58225977 C10.0398781 102.05484899 10.02229481 116.52742425 10 131 C10.77182617 131.13865479 11.54365234 131.27730957 12.33886719 131.42016602 C21.72941586 133.4662718 29.53180943 141.50736866 35 149 C41.7992178 160.18795496 42.3057495 172.89519302 42.25396729 185.6751709 C42.25864726 187.48504557 42.25864726 187.48504557 42.26342177 189.33148336 C42.26996287 192.6405599 42.26768495 195.94940551 42.26144934 199.25846744 C42.25688959 202.84271412 42.26392592 206.42694188 42.26940918 210.01118469 C42.27826752 217.01691661 42.27639712 224.02260548 42.2705839 231.02833903 C42.26605334 236.72586138 42.26546051 242.42337174 42.26763153 248.12089539 C42.267938 248.93411218 42.26824446 249.74732898 42.26856022 250.58518872 C42.26919971 252.23760927 42.26984814 253.89002982 42.2705054 255.54245037 C42.27619827 271.00998174 42.26966721 286.47748933 42.25890467 301.9450168 C42.24997011 315.19529002 42.25152244 328.44552819 42.26074219 341.69580078 C42.27146329 357.11082043 42.27564904 372.52581929 42.26951766 387.94084215 C42.26888061 389.58692964 42.26825187 391.23301712 42.26763153 392.87910461 C42.2671687 394.09372726 42.2671687 394.09372726 42.26669653 395.33288774 C42.2649751 401.01861708 42.26787273 406.70433314 42.27259064 412.39006042 C42.27821996 419.32613776 42.27664011 426.26216987 42.26602915 433.19824207 C42.26079991 436.7320332 42.25866836 440.26574912 42.26532745 443.79953957 C42.27245708 447.64134458 42.26390141 451.48302846 42.25396729 455.3248291 C42.26065945 456.97647198 42.26065945 456.97647198 42.26748681 458.66148138 C42.1848111 475.23418187 39.13664039 488.5631259 27.421875 500.80859375 C15.74418829 511.37501672 3.27801668 512.44897874 -11.70605469 512.41992188 C-13.49907965 512.4272699 -15.2920999 512.43585826 -17.08511353 512.44558716 C-21.93658057 512.4677372 -26.78787742 512.47073702 -31.63938808 512.46883965 C-35.69965587 512.46871962 -39.75988802 512.47729714 -43.82014585 512.48561716 C-53.40616326 512.50482869 -62.99209361 512.50774362 -72.578125 512.50097656 C-82.44217076 512.49434086 -92.30584211 512.51718643 -102.16981196 512.55429029 C-110.66016939 512.58505947 -119.15040683 512.59633941 -127.64081883 512.59245348 C-132.70217633 512.59039305 -137.7632425 512.59575543 -142.82454681 512.62034607 C-147.58869009 512.64272957 -152.35222808 512.64063959 -157.11637497 512.62041855 C-158.85571393 512.61702868 -160.59509457 512.62200942 -162.33437729 512.63640213 C-178.08560885 512.75765616 -189.95321506 509.50688762 -201.671875 498.41796875 C-208.45884245 491.22868106 -213.11251637 481.56016971 -213.13701439 471.65588474 C-213.14208893 470.56563482 -213.14716347 469.47538489 -213.15239179 468.35209709 C-213.15288955 467.1547492 -213.15338731 465.95740131 -213.15390015 464.72377014 C-213.1582824 463.45137291 -213.16266465 462.17897568 -213.1671797 460.86802095 C-213.17913407 457.33346462 -213.18479103 453.79892192 -213.18936086 450.26434934 C-213.19532142 446.45294704 -213.20693028 442.641561 -213.21765137 438.83016968 C-213.24216729 429.62294936 -213.25680253 420.41572366 -213.26971143 411.20848075 C-213.27342434 408.6068762 -213.27739751 406.00527218 -213.2814641 403.40366817 C-213.30670461 387.24066274 -213.32875313 371.07765644 -213.34119225 354.91463566 C-213.34412185 351.17119913 -213.34708352 347.42776263 -213.35009766 343.68432617 C-213.35084371 342.75393579 -213.35158976 341.82354541 -213.35235842 340.86496138 C-213.36500357 325.80370028 -213.39821557 310.74255746 -213.43989949 295.68135161 C-213.48236615 280.21016164 -213.50589285 264.73903214 -213.51111281 249.26778406 C-213.51452186 240.58462648 -213.52621694 231.90165364 -213.55921555 223.21855354 C-213.5872825 215.82108468 -213.59818642 208.42383843 -213.58702008 201.02632046 C-213.58185008 197.25548301 -213.58461092 193.48511125 -213.60948563 189.71434212 C-213.63629665 185.615603 -213.62386143 181.51787874 -213.60800171 177.41908264 C-213.62882484 175.65317554 -213.62882484 175.65317554 -213.65006864 173.85159355 C-213.52228659 160.39017013 -208.55453705 149.98356014 -199.41796875 140.328125 C-194.39572873 135.58693491 -188.2118364 132.87641685 -182 130 C-181.9906543 129.30438965 -181.98130859 128.6087793 -181.97167969 127.89208984 C-181.91776454 124.719025 -181.83415827 121.5474009 -181.75 118.375 C-181.72873047 116.73337891 -181.72873047 116.73337891 -181.70703125 115.05859375 C-181.52252677 108.96994582 -181.36259083 104.64841575 -177 100 C-171.77740143 95.94369602 -166.34659858 96.22602456 -160 97 C-155.47511873 99.14336481 -153.10120677 101.46581697 -151 106 C-149.70136712 110.73200473 -149.88798442 115.4490187 -149.9375 120.3125 C-149.958125 123.179375 -149.97875 126.04625 -150 129 C-138.78 129 -127.56 129 -116 129 C-116.04640625 126.25429687 -116.0928125 123.50859375 -116.140625 120.6796875 C-116.17185518 118.00880785 -116.1961232 115.33794885 -116.21972656 112.66699219 C-116.23979339 110.81631304 -116.26705345 108.96569691 -116.30175781 107.11523438 C-116.35049433 104.44906023 -116.37301787 101.78372713 -116.390625 99.1171875 C-116.42159271 97.88402298 -116.42159271 97.88402298 -116.45318604 96.62594604 C-116.45526233 91.26307637 -115.55471437 88.25985597 -112 84 C-106.77740143 79.94369602 -101.34659858 80.22602456 -95 81 C-90.47511873 83.14336481 -88.10120677 85.46581697 -86 90 C-84.87271177 94.29551559 -84.87050343 98.51602199 -84.90234375 102.92578125 C-84.90335083 103.58912476 -84.90435791 104.25246826 -84.90539551 104.93591309 C-84.91059577 107.39479318 -84.92455687 109.85364847 -84.9375 112.3125 C-84.958125 117.819375 -84.97875 123.32625 -85 129 C-63.88 129 -42.76 129 -21 129 C-21.04640625 120.40710938 -21.0928125 111.81421875 -21.140625 102.9609375 C-21.16366016 96.82756821 -21.18416544 90.69423139 -21.20101547 84.56084633 C-21.22318331 76.61452301 -21.2513291 68.66836759 -21.30175781 60.72216797 C-21.34166455 54.4309393 -21.36744199 48.13983731 -21.37635398 41.84848559 C-21.38156238 38.5181069 -21.39588378 35.18817446 -21.42292023 31.85789108 C-21.45192602 28.1373006 -21.45595699 24.41746257 -21.45410156 20.69677734 C-21.46848267 19.59626038 -21.48286377 18.49574341 -21.49768066 17.36187744 C-21.46468823 11.25410796 -21.11749056 7.6304138 -17 3 C-11.77740143 -1.05630398 -6.34659858 -0.77397544 0 0 Z M-146 200 C-148.47213664 203.70820495 -148.26434639 205.60875068 -148.29052734 210.03833008 C-148.29724457 210.75089462 -148.30396179 211.46345917 -148.31088257 212.19761658 C-148.32989085 214.5549923 -148.33378843 216.91208364 -148.3359375 219.26953125 C-148.3423645 220.90996925 -148.34909278 222.55040609 -148.35610962 224.19084167 C-148.36809018 227.63156795 -148.37178975 231.07219378 -148.37060547 234.51293945 C-148.37040247 238.91470721 -148.39768107 243.31582795 -148.43214989 247.71744251 C-148.4544279 251.10701942 -148.45844271 254.49644099 -148.45738602 257.8860836 C-148.45974153 259.50835076 -148.46856231 261.13062223 -148.48405075 262.75281715 C-148.50372581 265.0268288 -148.49786764 267.2994506 -148.48583984 269.57348633 C-148.48868988 270.86571609 -148.49153992 272.15794586 -148.49447632 273.48933411 C-147.91220489 277.6233247 -146.59079021 279.7656015 -144 283 C-138.06858275 287.41054103 -131.8496722 287.15198003 -124.76269531 287.16113281 C-123.84007904 287.16609772 -122.91746277 287.17106262 -121.96688843 287.17617798 C-118.9206263 287.19075884 -115.87441626 287.19759505 -112.828125 287.203125 C-110.70448811 287.20888009 -108.58085123 287.21463777 -106.45721436 287.22039795 C-102.00532795 287.23089654 -97.55345954 287.23674659 -93.1015625 287.24023438 C-87.41115627 287.2457147 -81.72098984 287.26973786 -76.03065872 287.29820633 C-71.64332394 287.31687711 -67.25604638 287.32204069 -62.86867523 287.32357025 C-60.77162109 287.3265876 -58.67456774 287.33458494 -56.5775528 287.34775543 C-53.63647992 287.3649077 -50.69598611 287.3629132 -47.75488281 287.35644531 C-46.89742462 287.3656601 -46.03996643 287.37487488 -45.15652466 287.3843689 C-38.39773541 287.33806492 -31.67521719 286.46943125 -26.5625 281.75 C-22.21117526 274.09166845 -22.68926765 266.22187912 -22.69921875 257.6328125 C-22.69532469 256.22948074 -22.69098857 254.82615015 -22.68623352 253.42282104 C-22.67879778 250.48936127 -22.67904304 247.55602191 -22.68432617 244.62255859 C-22.69011421 240.88490908 -22.67319349 237.14775619 -22.6499815 233.41018867 C-22.63516557 230.51375503 -22.63438311 227.6174388 -22.63749123 224.72097397 C-22.63698185 223.34402357 -22.63181707 221.96706592 -22.62167931 220.59015274 C-22.36313943 207.62132694 -22.36313943 207.62132694 -28.25 196.5625 C-34.5216516 192.99906159 -40.45054686 192.70810193 -47.49609375 192.74121094 C-48.42221466 192.7377063 -49.34833557 192.73420166 -50.30252075 192.73059082 C-53.34759129 192.72182676 -56.39242732 192.72760385 -59.4375 192.734375 C-61.56307011 192.73302682 -63.68863992 192.73108501 -65.81420898 192.72857666 C-70.2625625 192.72563261 -74.71083554 192.72989996 -79.15917969 192.73925781 C-84.85192777 192.75065185 -90.54448723 192.74408854 -96.23722839 192.73211288 C-100.6244854 192.72487491 -105.01169793 192.72719113 -109.3989563 192.73236847 C-111.49765038 192.7336996 -113.59634853 192.73207609 -115.69503784 192.72740936 C-118.63143565 192.72231232 -121.56753089 192.73009907 -124.50390625 192.74121094 C-125.79616623 192.73513824 -125.79616623 192.73513824 -127.11453247 192.72894287 C-135.0473844 192.78436269 -140.58679133 193.65881271 -146 200 Z M-146 360 C-148.84000604 364.26000905 -148.63091437 367.99941947 -148 373 C-145.8065619 377.46811466 -143.51294863 379.90863356 -139 382 C-134.29264112 383.27502178 -129.60180823 383.15488313 -124.76269531 383.16113281 C-123.84007904 383.16609772 -122.91746277 383.17106262 -121.96688843 383.17617798 C-118.9206263 383.19075884 -115.87441626 383.19759505 -112.828125 383.203125 C-110.70448811 383.20888009 -108.58085123 383.21463777 -106.45721436 383.22039795 C-102.00532795 383.23089654 -97.55345954 383.23674659 -93.1015625 383.24023438 C-87.41115627 383.2457147 -81.72098984 383.26973786 -76.03065872 383.29820633 C-71.64332394 383.31687711 -67.25604638 383.32204069 -62.86867523 383.32357025 C-60.77162109 383.3265876 -58.67456774 383.33458494 -56.5775528 383.34775543 C-53.63647992 383.3649077 -50.69598611 383.3629132 -47.75488281 383.35644531 C-46.46869553 383.37026749 -46.46869553 383.37026749 -45.15652466 383.3843689 C-39.4152494 383.34503584 -34.22279007 382.49685367 -29 380 C-24.40851111 375.29372389 -23.64500819 371.93085276 -23.71875 365.54296875 C-24.13181244 361.80819582 -25.50874332 359.76058172 -28 357 C-33.94444914 352.57976859 -40.16799347 352.85103182 -47.26904297 352.85473633 C-48.19487183 352.85137772 -49.12070068 352.8480191 -50.07458496 352.84455872 C-53.13046618 352.83507184 -56.18629248 352.83310676 -59.2421875 352.83203125 C-61.37061587 352.82881719 -63.49904402 352.82545301 -65.62747192 352.82194519 C-70.08775342 352.81595965 -74.54801555 352.81410471 -79.00830078 352.81469727 C-84.7167865 352.81479888 -90.42514781 352.80114514 -96.13360405 352.78392506 C-100.52943489 352.77279374 -104.92523576 352.77077841 -109.32107925 352.77130699 C-111.42535964 352.77012865 -113.52964084 352.76571504 -115.63390732 352.75797462 C-118.58008229 352.74815163 -121.52598846 352.75106193 -124.47216797 352.75708008 C-125.76914108 352.74865082 -125.76914108 352.74865082 -127.09231567 352.74005127 C-135.03713002 352.78118464 -140.57804428 353.64856616 -146 360 Z M-127.8125 421.4375 C-131.75078863 426.05092383 -132.4454588 428.59018413 -132.31640625 434.4921875 C-131.84957983 438.19221913 -130.4743642 440.25813697 -128 443 C-122.88516936 446.80333561 -117.92729807 447.12243388 -111.70019531 447.16113281 C-109.82234344 447.17554413 -109.82234344 447.17554413 -107.90655518 447.19024658 C-106.54708032 447.1950959 -105.18760333 447.1993744 -103.828125 447.203125 C-102.79272709 447.20736607 -102.79272709 447.20736607 -101.73641205 447.21169281 C-98.08208335 447.22664985 -94.42779376 447.23590076 -90.7734375 447.24023438 C-87.02006972 447.24570783 -83.26706674 447.26972166 -79.51381302 447.29820633 C-76.60881544 447.31693625 -73.70390384 447.32204382 -70.79885101 447.32357025 C-69.41630819 447.326575 -68.03376608 447.33452891 -66.65128326 447.34775543 C-55.47425264 447.49998845 -55.47425264 447.49998845 -45 444 C-40.40851111 439.29372389 -39.64500819 435.93085276 -39.71875 429.54296875 C-40.13181244 425.80819582 -41.50874332 423.76058172 -44 421 C-49.12831561 417.18663711 -54.08835504 416.87627791 -60.33154297 416.85473633 C-62.21907791 416.84516655 -62.21907791 416.84516655 -64.14474487 416.83540344 C-65.51055869 416.83387452 -66.87637302 416.83276069 -68.2421875 416.83203125 C-69.65316806 416.82881476 -71.0641483 416.8254504 -72.47512817 416.82194519 C-75.4289019 416.81596807 -78.38264643 416.81410383 -81.33642578 416.81469727 C-85.10784485 416.81479881 -88.87907533 416.80114813 -92.65044975 416.78392506 C-95.56394295 416.77276711 -98.4773911 416.77077922 -101.39090347 416.77130699 C-102.78066787 416.77013254 -104.17043365 416.76574098 -105.56017685 416.75797462 C-117.52325468 416.29965664 -117.52325468 416.29965664 -127.8125 421.4375 Z " fill="#000000" transform="translate(270,0)"/>
<path d="M0 0 C20.6818286 11.55386449 34.6413161 42.41434119 40.96484375 64.22265625 C47.83949942 89.52700991 48.97924307 117.77223222 41.96484375 143.22265625 C41.78824219 143.8863623 41.61164063 144.55006836 41.4296875 145.23388672 C35.89878844 165.39606226 25.32462326 183.31568142 11.96484375 199.22265625 C11.28164063 200.0528125 10.5984375 200.88296875 9.89453125 201.73828125 C5.12861072 207.35590621 1.6799345 210.80321052 -5.91015625 211.66015625 C-10.54807745 211.43803359 -14.37881208 210.11052101 -18.03515625 207.22265625 C-20.8130785 203.625403 -21.89666453 200.19209832 -22.53515625 195.72265625 C-21.67158075 189.67762773 -19.35613729 185.28087246 -14.91015625 181.09765625 C1.79030213 165.18226216 13.12131709 139.29992963 14.08789062 116.29394531 C14.6182165 96.03551053 14.6182165 96.03551053 10.96484375 76.22265625 C10.47177734 74.42634766 10.47177734 74.42634766 9.96875 72.59375 C4.65825609 54.97173042 -4.82694003 40.32392619 -17.03515625 26.72265625 C-20.44853077 22.87558238 -21.82571494 20.07272113 -22.41015625 14.91015625 C-21.88277041 9.72419552 -20.43339107 5.44071281 -16.52734375 1.828125 C-11.43392614 -1.5240545 -5.71373254 -2.18240456 0 0 Z " fill="#000000" transform="translate(409.03515625,150.77734375)"/>
<path d="M0 0 C13.50099892 7.8441558 21.1417618 25.09022166 25.3125 39.375 C30.53446032 60.6779762 27.69580007 82.42896756 16.6640625 101.4375 C13.75790565 105.91270867 10.55357447 110.02222193 7 114 C6.43410156 114.63421875 5.86820312 115.2684375 5.28515625 115.921875 C1.42286953 119.73872305 -2.07725074 121.01180901 -7.50390625 121.2265625 C-12.36269142 120.78554601 -16.0381276 119.09488069 -19.3828125 115.5234375 C-22.60870738 110.76355065 -22.90163695 105.57713575 -22 100 C-20.44065384 96.94368153 -18.53730302 94.64425433 -16.3515625 92.0234375 C-7.47573685 81.0546224 -3.72154147 69.87253982 -4.0859375 55.64453125 C-5.42494333 43.42982252 -11.43837768 33.13159321 -19.3984375 23.98828125 C-22.30266303 20.38279151 -22.34900375 16.79089143 -22.26953125 12.34765625 C-21.73762287 7.7146572 -19.94226916 4.55292028 -16.3046875 1.64453125 C-10.99187469 -1.50659052 -5.86444233 -1.87662155 0 0 Z " fill="#000000" transform="translate(364,196)"/>
<path d="M0 0 C22.11 0 44.22 0 67 0 C67 11.22 67 22.44 67 34 C44.89 34 22.78 34 0 34 C0 22.78 0 11.56 0 0 Z " fill="#000000" transform="translate(151,223)"/>
</svg>
